<mxfile host="65bd71144e">
    <diagram id="IR0WtdUaMRRv4yMb3qp2" name="Page-1">
        <mxGraphModel dx="523" dy="1065" grid="1" gridSize="10" guides="1" tooltips="1" connect="1" arrows="1" fold="1" page="1" pageScale="1" pageWidth="827" pageHeight="1169" math="0" shadow="0">
            <root>
                <mxCell id="0"/>
                <mxCell id="1" parent="0"/>
                <mxCell id="11" value="" style="group" parent="1" vertex="1" connectable="0">
                    <mxGeometry x="100" y="80" width="180" height="180" as="geometry"/>
                </mxCell>
                <mxCell id="7" value="Atelier1.Banque &amp;lt;&amp;lt; abstract &amp;gt;&amp;gt;" style="rounded=0;whiteSpace=wrap;html=1;" parent="11" vertex="1">
                    <mxGeometry width="180" height="60" as="geometry"/>
                </mxCell>
                <mxCell id="8" value="- cash : int" style="rounded=0;whiteSpace=wrap;html=1;" parent="11" vertex="1">
                    <mxGeometry y="60" width="180" height="60" as="geometry"/>
                </mxCell>
                <mxCell id="10" value="- Atelier1.Banque()&lt;br&gt;+setCash(int cash)&lt;br&gt;+ getInstance() : Atelier1.Banque" style="rounded=0;whiteSpace=wrap;html=1;" parent="11" vertex="1">
                    <mxGeometry y="120" width="180" height="60" as="geometry"/>
                </mxCell>
            </root>
        </mxGraphModel>
    </diagram>
</mxfile>